<mxfile host="app.diagrams.net" agent="Mozilla/5.0 (Windows NT 10.0; Win64; x64) AppleWebKit/537.36 (KHTML, like Gecko) Chrome/137.0.0.0 Safari/537.36" version="27.1.4" pages="4">
  <diagram name="Page-1" id="bqVNx0bLDmuV_ugbM5io">
    <mxGraphModel dx="745" dy="505" grid="1" gridSize="10" guides="1" tooltips="1" connect="1" arrows="1" fold="1" page="1" pageScale="1" pageWidth="827" pageHeight="1169" math="0" shadow="0">
      <root>
        <mxCell id="0" />
        <mxCell id="1" parent="0" />
        <mxCell id="HUuwpDChSXq43WJIJE7p-37" style="edgeStyle=orthogonalEdgeStyle;rounded=0;orthogonalLoop=1;jettySize=auto;html=1;exitX=0.5;exitY=1;exitDx=0;exitDy=0;entryX=0.5;entryY=0;entryDx=0;entryDy=0;endArrow=none;startFill=0;" parent="1" source="HUuwpDChSXq43WJIJE7p-42" target="HUuwpDChSXq43WJIJE7p-46" edge="1">
          <mxGeometry relative="1" as="geometry" />
        </mxCell>
        <mxCell id="HUuwpDChSXq43WJIJE7p-39" style="edgeStyle=orthogonalEdgeStyle;rounded=0;orthogonalLoop=1;jettySize=auto;html=1;exitX=0.5;exitY=1;exitDx=0;exitDy=0;entryX=0.5;entryY=0;entryDx=0;entryDy=0;endArrow=none;startFill=0;" parent="1" source="HUuwpDChSXq43WJIJE7p-42" target="HUuwpDChSXq43WJIJE7p-50" edge="1">
          <mxGeometry relative="1" as="geometry" />
        </mxCell>
        <mxCell id="HUuwpDChSXq43WJIJE7p-40" style="edgeStyle=orthogonalEdgeStyle;rounded=0;orthogonalLoop=1;jettySize=auto;html=1;exitX=0.5;exitY=1;exitDx=0;exitDy=0;entryX=0.5;entryY=0;entryDx=0;entryDy=0;endArrow=none;startFill=0;" parent="1" source="HUuwpDChSXq43WJIJE7p-42" target="HUuwpDChSXq43WJIJE7p-44" edge="1">
          <mxGeometry relative="1" as="geometry" />
        </mxCell>
        <mxCell id="HUuwpDChSXq43WJIJE7p-41" style="edgeStyle=orthogonalEdgeStyle;rounded=0;orthogonalLoop=1;jettySize=auto;html=1;exitX=0.5;exitY=1;exitDx=0;exitDy=0;entryX=0.5;entryY=0;entryDx=0;entryDy=0;endArrow=none;startFill=0;" parent="1" source="HUuwpDChSXq43WJIJE7p-42" target="HUuwpDChSXq43WJIJE7p-52" edge="1">
          <mxGeometry relative="1" as="geometry" />
        </mxCell>
        <mxCell id="HUuwpDChSXq43WJIJE7p-42" value="Foodcript" style="rounded=0;whiteSpace=wrap;html=1;" parent="1" vertex="1">
          <mxGeometry x="470" y="639" width="120" height="60" as="geometry" />
        </mxCell>
        <mxCell id="HUuwpDChSXq43WJIJE7p-43" style="edgeStyle=orthogonalEdgeStyle;rounded=0;orthogonalLoop=1;jettySize=auto;html=1;exitX=0.5;exitY=1;exitDx=0;exitDy=0;entryX=0.5;entryY=0;entryDx=0;entryDy=0;endArrow=none;startFill=0;" parent="1" source="HUuwpDChSXq43WJIJE7p-44" target="HUuwpDChSXq43WJIJE7p-61" edge="1">
          <mxGeometry relative="1" as="geometry" />
        </mxCell>
        <mxCell id="HUuwpDChSXq43WJIJE7p-44" value="2. Upravljanje jelovnikom" style="rounded=0;whiteSpace=wrap;html=1;" parent="1" vertex="1">
          <mxGeometry x="372" y="779" width="120" height="60" as="geometry" />
        </mxCell>
        <mxCell id="HUuwpDChSXq43WJIJE7p-45" style="edgeStyle=orthogonalEdgeStyle;rounded=0;orthogonalLoop=1;jettySize=auto;html=1;exitX=0.5;exitY=1;exitDx=0;exitDy=0;entryX=0.5;entryY=0;entryDx=0;entryDy=0;endArrow=none;startFill=0;" parent="1" source="HUuwpDChSXq43WJIJE7p-46" target="HUuwpDChSXq43WJIJE7p-68" edge="1">
          <mxGeometry relative="1" as="geometry" />
        </mxCell>
        <mxCell id="HUuwpDChSXq43WJIJE7p-46" value="3. Upravljanje pretplatama" style="rounded=0;whiteSpace=wrap;html=1;" parent="1" vertex="1">
          <mxGeometry x="572" y="779" width="120" height="60" as="geometry" />
        </mxCell>
        <mxCell id="HUuwpDChSXq43WJIJE7p-49" style="edgeStyle=orthogonalEdgeStyle;rounded=0;orthogonalLoop=1;jettySize=auto;html=1;exitX=0.5;exitY=1;exitDx=0;exitDy=0;entryX=0.5;entryY=0;entryDx=0;entryDy=0;endArrow=none;startFill=0;" parent="1" source="HUuwpDChSXq43WJIJE7p-50" target="HUuwpDChSXq43WJIJE7p-76" edge="1">
          <mxGeometry relative="1" as="geometry" />
        </mxCell>
        <mxCell id="HUuwpDChSXq43WJIJE7p-50" value="5. Administratorski modul" style="rounded=0;whiteSpace=wrap;html=1;" parent="1" vertex="1">
          <mxGeometry x="780" y="779" width="120" height="60" as="geometry" />
        </mxCell>
        <mxCell id="HUuwpDChSXq43WJIJE7p-51" style="edgeStyle=orthogonalEdgeStyle;rounded=0;orthogonalLoop=1;jettySize=auto;html=1;exitX=0.5;exitY=1;exitDx=0;exitDy=0;entryX=0.5;entryY=0;entryDx=0;entryDy=0;endArrow=none;startFill=0;" parent="1" source="HUuwpDChSXq43WJIJE7p-52" target="HUuwpDChSXq43WJIJE7p-54" edge="1">
          <mxGeometry relative="1" as="geometry" />
        </mxCell>
        <mxCell id="HUuwpDChSXq43WJIJE7p-52" value="1. Upravljanje korisnicima" style="rounded=0;whiteSpace=wrap;html=1;" parent="1" vertex="1">
          <mxGeometry x="172" y="779" width="120" height="60" as="geometry" />
        </mxCell>
        <mxCell id="HUuwpDChSXq43WJIJE7p-53" style="edgeStyle=orthogonalEdgeStyle;rounded=0;orthogonalLoop=1;jettySize=auto;html=1;exitX=0.5;exitY=1;exitDx=0;exitDy=0;entryX=0.5;entryY=0;entryDx=0;entryDy=0;endArrow=none;startFill=0;" parent="1" source="HUuwpDChSXq43WJIJE7p-54" target="HUuwpDChSXq43WJIJE7p-56" edge="1">
          <mxGeometry relative="1" as="geometry" />
        </mxCell>
        <mxCell id="HUuwpDChSXq43WJIJE7p-54" value="1.1. Registracija" style="rounded=0;whiteSpace=wrap;html=1;" parent="1" vertex="1">
          <mxGeometry x="172" y="869" width="120" height="60" as="geometry" />
        </mxCell>
        <mxCell id="HUuwpDChSXq43WJIJE7p-55" style="edgeStyle=orthogonalEdgeStyle;rounded=0;orthogonalLoop=1;jettySize=auto;html=1;exitX=0.5;exitY=1;exitDx=0;exitDy=0;entryX=0.5;entryY=0;entryDx=0;entryDy=0;endArrow=none;startFill=0;" parent="1" source="HUuwpDChSXq43WJIJE7p-56" target="HUuwpDChSXq43WJIJE7p-58" edge="1">
          <mxGeometry relative="1" as="geometry" />
        </mxCell>
        <mxCell id="HUuwpDChSXq43WJIJE7p-56" value="1.2. Prijava" style="rounded=0;whiteSpace=wrap;html=1;" parent="1" vertex="1">
          <mxGeometry x="172" y="959" width="120" height="60" as="geometry" />
        </mxCell>
        <mxCell id="HUuwpDChSXq43WJIJE7p-58" value="1.3. Upravljanje profilom" style="rounded=0;whiteSpace=wrap;html=1;" parent="1" vertex="1">
          <mxGeometry x="172" y="1049" width="120" height="60" as="geometry" />
        </mxCell>
        <mxCell id="HUuwpDChSXq43WJIJE7p-60" style="edgeStyle=orthogonalEdgeStyle;rounded=0;orthogonalLoop=1;jettySize=auto;html=1;exitX=0.5;exitY=1;exitDx=0;exitDy=0;entryX=0.5;entryY=0;entryDx=0;entryDy=0;endArrow=none;startFill=0;" parent="1" source="HUuwpDChSXq43WJIJE7p-61" target="HUuwpDChSXq43WJIJE7p-63" edge="1">
          <mxGeometry relative="1" as="geometry" />
        </mxCell>
        <mxCell id="HUuwpDChSXq43WJIJE7p-61" value="2.1. Dodavanje jela" style="rounded=0;whiteSpace=wrap;html=1;" parent="1" vertex="1">
          <mxGeometry x="372" y="869" width="120" height="60" as="geometry" />
        </mxCell>
        <mxCell id="HUuwpDChSXq43WJIJE7p-62" style="edgeStyle=orthogonalEdgeStyle;rounded=0;orthogonalLoop=1;jettySize=auto;html=1;exitX=0.5;exitY=1;exitDx=0;exitDy=0;entryX=0.5;entryY=0;entryDx=0;entryDy=0;endArrow=none;startFill=0;" parent="1" source="HUuwpDChSXq43WJIJE7p-63" target="HUuwpDChSXq43WJIJE7p-65" edge="1">
          <mxGeometry relative="1" as="geometry" />
        </mxCell>
        <mxCell id="HUuwpDChSXq43WJIJE7p-63" value="2.2. Uređivanje jela" style="rounded=0;whiteSpace=wrap;html=1;" parent="1" vertex="1">
          <mxGeometry x="372" y="959" width="120" height="60" as="geometry" />
        </mxCell>
        <mxCell id="HUuwpDChSXq43WJIJE7p-64" style="edgeStyle=orthogonalEdgeStyle;rounded=0;orthogonalLoop=1;jettySize=auto;html=1;exitX=0.5;exitY=1;exitDx=0;exitDy=0;entryX=0.5;entryY=0;entryDx=0;entryDy=0;endArrow=none;startFill=0;" parent="1" source="HUuwpDChSXq43WJIJE7p-65" target="HUuwpDChSXq43WJIJE7p-66" edge="1">
          <mxGeometry relative="1" as="geometry" />
        </mxCell>
        <mxCell id="HUuwpDChSXq43WJIJE7p-65" value="2.3. Definiranje nutritivnih vrijednosti" style="rounded=0;whiteSpace=wrap;html=1;" parent="1" vertex="1">
          <mxGeometry x="372" y="1049" width="120" height="60" as="geometry" />
        </mxCell>
        <mxCell id="HUuwpDChSXq43WJIJE7p-66" value="2.4. Pregled aktualnih jela" style="rounded=0;whiteSpace=wrap;html=1;" parent="1" vertex="1">
          <mxGeometry x="372" y="1139" width="120" height="60" as="geometry" />
        </mxCell>
        <mxCell id="HUuwpDChSXq43WJIJE7p-67" style="edgeStyle=orthogonalEdgeStyle;rounded=0;orthogonalLoop=1;jettySize=auto;html=1;exitX=0.5;exitY=1;exitDx=0;exitDy=0;entryX=0.5;entryY=0;entryDx=0;entryDy=0;endArrow=none;startFill=0;" parent="1" source="HUuwpDChSXq43WJIJE7p-68" target="HUuwpDChSXq43WJIJE7p-70" edge="1">
          <mxGeometry relative="1" as="geometry" />
        </mxCell>
        <mxCell id="HUuwpDChSXq43WJIJE7p-68" value="3.1. Kreiranje pretplate" style="rounded=0;whiteSpace=wrap;html=1;" parent="1" vertex="1">
          <mxGeometry x="572" y="869" width="120" height="60" as="geometry" />
        </mxCell>
        <mxCell id="HUuwpDChSXq43WJIJE7p-69" style="edgeStyle=orthogonalEdgeStyle;rounded=0;orthogonalLoop=1;jettySize=auto;html=1;exitX=0.5;exitY=1;exitDx=0;exitDy=0;entryX=0.5;entryY=0;entryDx=0;entryDy=0;endArrow=none;startFill=0;" parent="1" source="HUuwpDChSXq43WJIJE7p-70" target="HUuwpDChSXq43WJIJE7p-71" edge="1">
          <mxGeometry relative="1" as="geometry" />
        </mxCell>
        <mxCell id="HUuwpDChSXq43WJIJE7p-70" value="3.2. Izmjena/otkazivanje pretplate" style="rounded=0;whiteSpace=wrap;html=1;" parent="1" vertex="1">
          <mxGeometry x="572" y="959" width="120" height="60" as="geometry" />
        </mxCell>
        <mxCell id="HUuwpDChSXq43WJIJE7p-71" value="3.3. Praćenje statusa pretplate" style="rounded=0;whiteSpace=wrap;html=1;" parent="1" vertex="1">
          <mxGeometry x="572" y="1049" width="120" height="60" as="geometry" />
        </mxCell>
        <mxCell id="HUuwpDChSXq43WJIJE7p-75" style="edgeStyle=orthogonalEdgeStyle;rounded=0;orthogonalLoop=1;jettySize=auto;html=1;exitX=0.5;exitY=1;exitDx=0;exitDy=0;entryX=0.5;entryY=0;entryDx=0;entryDy=0;endArrow=none;startFill=0;" parent="1" source="HUuwpDChSXq43WJIJE7p-76" target="HUuwpDChSXq43WJIJE7p-78" edge="1">
          <mxGeometry relative="1" as="geometry" />
        </mxCell>
        <mxCell id="HUuwpDChSXq43WJIJE7p-76" value="5.1. Upravljanje korisnicima" style="rounded=0;whiteSpace=wrap;html=1;" parent="1" vertex="1">
          <mxGeometry x="780" y="869" width="120" height="60" as="geometry" />
        </mxCell>
        <mxCell id="HUuwpDChSXq43WJIJE7p-77" style="edgeStyle=orthogonalEdgeStyle;rounded=0;orthogonalLoop=1;jettySize=auto;html=1;exitX=0.5;exitY=1;exitDx=0;exitDy=0;entryX=0.5;entryY=0;entryDx=0;entryDy=0;endArrow=none;startFill=0;" parent="1" source="HUuwpDChSXq43WJIJE7p-78" target="HUuwpDChSXq43WJIJE7p-80" edge="1">
          <mxGeometry relative="1" as="geometry" />
        </mxCell>
        <mxCell id="HUuwpDChSXq43WJIJE7p-78" value="5.2. Upravljanje jelovnikom&amp;nbsp;" style="rounded=0;whiteSpace=wrap;html=1;" parent="1" vertex="1">
          <mxGeometry x="780" y="959" width="120" height="60" as="geometry" />
        </mxCell>
        <mxCell id="HUuwpDChSXq43WJIJE7p-80" value="5.3. Pregled aktivnih pretplata" style="rounded=0;whiteSpace=wrap;html=1;" parent="1" vertex="1">
          <mxGeometry x="780" y="1049" width="120" height="60" as="geometry" />
        </mxCell>
      </root>
    </mxGraphModel>
  </diagram>
  <diagram name="Page-2" id="bsFKTj2-LPXR0Uszp9NT">
    <mxGraphModel dx="1123" dy="1816" grid="1" gridSize="10" guides="1" tooltips="1" connect="1" arrows="1" fold="1" page="1" pageScale="1" pageWidth="850" pageHeight="1100" math="0" shadow="0">
      <root>
        <mxCell id="0" />
        <mxCell id="1" parent="0" />
        <mxCell id="QOxkZbII2rNQmmfEy8av-1" value="Korisnik" style="shape=umlActor;verticalLabelPosition=bottom;verticalAlign=top;html=1;outlineConnect=0;" vertex="1" parent="1">
          <mxGeometry x="50" y="130" width="30" height="60" as="geometry" />
        </mxCell>
        <mxCell id="QOxkZbII2rNQmmfEy8av-4" value="" style="rounded=0;whiteSpace=wrap;html=1;" vertex="1" parent="1">
          <mxGeometry x="210" y="-150" width="370" height="640" as="geometry" />
        </mxCell>
        <mxCell id="QOxkZbII2rNQmmfEy8av-5" value="Foodcript" style="text;html=1;align=center;verticalAlign=middle;whiteSpace=wrap;rounded=0;" vertex="1" parent="1">
          <mxGeometry x="320" y="-180" width="150" height="30" as="geometry" />
        </mxCell>
        <mxCell id="QOxkZbII2rNQmmfEy8av-6" value="UC1: Registracija" style="ellipse;whiteSpace=wrap;html=1;" vertex="1" parent="1">
          <mxGeometry x="312.5" y="-110" width="165" height="40" as="geometry" />
        </mxCell>
        <mxCell id="QOxkZbII2rNQmmfEy8av-7" value="UC2: Prijava" style="ellipse;whiteSpace=wrap;html=1;" vertex="1" parent="1">
          <mxGeometry x="312.5" y="-60" width="165" height="40" as="geometry" />
        </mxCell>
        <mxCell id="QOxkZbII2rNQmmfEy8av-8" value="UC3: Uređivanje profila" style="ellipse;whiteSpace=wrap;html=1;" vertex="1" parent="1">
          <mxGeometry x="312.5" y="-10" width="165" height="40" as="geometry" />
        </mxCell>
        <mxCell id="QOxkZbII2rNQmmfEy8av-9" value="UC4: Pregled povijesti narudžbi" style="ellipse;whiteSpace=wrap;html=1;" vertex="1" parent="1">
          <mxGeometry x="312.5" y="40" width="157.5" height="50" as="geometry" />
        </mxCell>
        <mxCell id="QOxkZbII2rNQmmfEy8av-10" value="UC5: Pregled jela" style="ellipse;whiteSpace=wrap;html=1;" vertex="1" parent="1">
          <mxGeometry x="308.75" y="100" width="165" height="40" as="geometry" />
        </mxCell>
        <mxCell id="QOxkZbII2rNQmmfEy8av-11" value="UC6: Kreiranje pretplate" style="ellipse;whiteSpace=wrap;html=1;" vertex="1" parent="1">
          <mxGeometry x="308.75" y="150" width="165" height="40" as="geometry" />
        </mxCell>
        <mxCell id="QOxkZbII2rNQmmfEy8av-12" value="UC7: Izmjena/otkazivanje pretplate" style="ellipse;whiteSpace=wrap;html=1;" vertex="1" parent="1">
          <mxGeometry x="308.75" y="200" width="161.25" height="60" as="geometry" />
        </mxCell>
        <mxCell id="QOxkZbII2rNQmmfEy8av-13" value="UC8: Praćenje statusa pretplate" style="ellipse;whiteSpace=wrap;html=1;" vertex="1" parent="1">
          <mxGeometry x="308.75" y="270" width="161.25" height="50" as="geometry" />
        </mxCell>
        <mxCell id="QOxkZbII2rNQmmfEy8av-14" value="UC9: Kreiranje narudžbe" style="ellipse;whiteSpace=wrap;html=1;" vertex="1" parent="1">
          <mxGeometry x="312.5" y="330" width="165" height="40" as="geometry" />
        </mxCell>
        <mxCell id="QOxkZbII2rNQmmfEy8av-15" value="UC10: Upravljanje dostavnim terminima" style="ellipse;whiteSpace=wrap;html=1;" vertex="1" parent="1">
          <mxGeometry x="306.88" y="380" width="173.12" height="70" as="geometry" />
        </mxCell>
        <mxCell id="QOxkZbII2rNQmmfEy8av-17" value="" style="endArrow=none;html=1;rounded=0;exitX=1;exitY=0.3333333333333333;exitDx=0;exitDy=0;exitPerimeter=0;entryX=0;entryY=0.5;entryDx=0;entryDy=0;" edge="1" parent="1" source="QOxkZbII2rNQmmfEy8av-1" target="QOxkZbII2rNQmmfEy8av-6">
          <mxGeometry width="50" height="50" relative="1" as="geometry">
            <mxPoint x="380" y="70" as="sourcePoint" />
            <mxPoint x="430" y="20" as="targetPoint" />
          </mxGeometry>
        </mxCell>
        <mxCell id="QOxkZbII2rNQmmfEy8av-18" value="" style="endArrow=none;html=1;rounded=0;exitX=1;exitY=0.3333333333333333;exitDx=0;exitDy=0;exitPerimeter=0;entryX=0;entryY=0.5;entryDx=0;entryDy=0;" edge="1" parent="1" source="QOxkZbII2rNQmmfEy8av-1" target="QOxkZbII2rNQmmfEy8av-7">
          <mxGeometry width="50" height="50" relative="1" as="geometry">
            <mxPoint x="90" y="160" as="sourcePoint" />
            <mxPoint x="323" y="-80" as="targetPoint" />
          </mxGeometry>
        </mxCell>
        <mxCell id="QOxkZbII2rNQmmfEy8av-19" value="" style="endArrow=none;html=1;rounded=0;exitX=1;exitY=0.3333333333333333;exitDx=0;exitDy=0;exitPerimeter=0;entryX=0;entryY=0.5;entryDx=0;entryDy=0;" edge="1" parent="1" source="QOxkZbII2rNQmmfEy8av-1" target="QOxkZbII2rNQmmfEy8av-8">
          <mxGeometry width="50" height="50" relative="1" as="geometry">
            <mxPoint x="100" y="170" as="sourcePoint" />
            <mxPoint x="333" y="-70" as="targetPoint" />
          </mxGeometry>
        </mxCell>
        <mxCell id="QOxkZbII2rNQmmfEy8av-20" value="" style="endArrow=none;html=1;rounded=0;exitX=1;exitY=0.3333333333333333;exitDx=0;exitDy=0;exitPerimeter=0;entryX=0;entryY=0.5;entryDx=0;entryDy=0;" edge="1" parent="1" source="QOxkZbII2rNQmmfEy8av-1" target="QOxkZbII2rNQmmfEy8av-9">
          <mxGeometry width="50" height="50" relative="1" as="geometry">
            <mxPoint x="110" y="180" as="sourcePoint" />
            <mxPoint x="343" y="-60" as="targetPoint" />
          </mxGeometry>
        </mxCell>
        <mxCell id="QOxkZbII2rNQmmfEy8av-21" value="" style="endArrow=none;html=1;rounded=0;exitX=1;exitY=0.3333333333333333;exitDx=0;exitDy=0;exitPerimeter=0;entryX=0;entryY=0.5;entryDx=0;entryDy=0;" edge="1" parent="1" source="QOxkZbII2rNQmmfEy8av-1" target="QOxkZbII2rNQmmfEy8av-10">
          <mxGeometry width="50" height="50" relative="1" as="geometry">
            <mxPoint x="120" y="190" as="sourcePoint" />
            <mxPoint x="353" y="-50" as="targetPoint" />
          </mxGeometry>
        </mxCell>
        <mxCell id="QOxkZbII2rNQmmfEy8av-22" value="" style="endArrow=none;html=1;rounded=0;exitX=1;exitY=0.3333333333333333;exitDx=0;exitDy=0;exitPerimeter=0;entryX=0;entryY=0.5;entryDx=0;entryDy=0;" edge="1" parent="1" source="QOxkZbII2rNQmmfEy8av-1" target="QOxkZbII2rNQmmfEy8av-11">
          <mxGeometry width="50" height="50" relative="1" as="geometry">
            <mxPoint x="130" y="200" as="sourcePoint" />
            <mxPoint x="363" y="-40" as="targetPoint" />
          </mxGeometry>
        </mxCell>
        <mxCell id="QOxkZbII2rNQmmfEy8av-23" value="" style="endArrow=none;html=1;rounded=0;exitX=1;exitY=0.3333333333333333;exitDx=0;exitDy=0;exitPerimeter=0;entryX=0;entryY=0.5;entryDx=0;entryDy=0;" edge="1" parent="1" source="QOxkZbII2rNQmmfEy8av-1" target="QOxkZbII2rNQmmfEy8av-12">
          <mxGeometry width="50" height="50" relative="1" as="geometry">
            <mxPoint x="140" y="210" as="sourcePoint" />
            <mxPoint x="373" y="-30" as="targetPoint" />
          </mxGeometry>
        </mxCell>
        <mxCell id="QOxkZbII2rNQmmfEy8av-24" value="" style="endArrow=none;html=1;rounded=0;exitX=1;exitY=0.3333333333333333;exitDx=0;exitDy=0;exitPerimeter=0;entryX=0;entryY=0.5;entryDx=0;entryDy=0;" edge="1" parent="1" source="QOxkZbII2rNQmmfEy8av-1" target="QOxkZbII2rNQmmfEy8av-13">
          <mxGeometry width="50" height="50" relative="1" as="geometry">
            <mxPoint x="150" y="220" as="sourcePoint" />
            <mxPoint x="383" y="-20" as="targetPoint" />
          </mxGeometry>
        </mxCell>
        <mxCell id="QOxkZbII2rNQmmfEy8av-25" value="" style="endArrow=none;html=1;rounded=0;exitX=1;exitY=0.3333333333333333;exitDx=0;exitDy=0;exitPerimeter=0;entryX=0;entryY=0.5;entryDx=0;entryDy=0;" edge="1" parent="1" source="QOxkZbII2rNQmmfEy8av-1" target="QOxkZbII2rNQmmfEy8av-14">
          <mxGeometry width="50" height="50" relative="1" as="geometry">
            <mxPoint x="160" y="230" as="sourcePoint" />
            <mxPoint x="393" y="-10" as="targetPoint" />
          </mxGeometry>
        </mxCell>
        <mxCell id="QOxkZbII2rNQmmfEy8av-26" value="" style="endArrow=none;html=1;rounded=0;exitX=1;exitY=0.3333333333333333;exitDx=0;exitDy=0;exitPerimeter=0;entryX=0;entryY=0.5;entryDx=0;entryDy=0;" edge="1" parent="1" source="QOxkZbII2rNQmmfEy8av-1" target="QOxkZbII2rNQmmfEy8av-15">
          <mxGeometry width="50" height="50" relative="1" as="geometry">
            <mxPoint x="170" y="240" as="sourcePoint" />
            <mxPoint x="403" as="targetPoint" />
          </mxGeometry>
        </mxCell>
      </root>
    </mxGraphModel>
  </diagram>
  <diagram name="Page-3" id="gg9GZ9NtSoPoSg_TW-O4">
    <mxGraphModel dx="786" dy="1601" grid="1" gridSize="10" guides="1" tooltips="1" connect="1" arrows="1" fold="1" page="1" pageScale="1" pageWidth="850" pageHeight="1100" math="0" shadow="0">
      <root>
        <mxCell id="0" />
        <mxCell id="1" parent="0" />
        <mxCell id="gpeM4htQoFt6hieHmYu1-1" value="Administrator" style="shape=umlActor;verticalLabelPosition=bottom;verticalAlign=top;html=1;outlineConnect=0;" vertex="1" parent="1">
          <mxGeometry x="80" y="-40" width="30" height="60" as="geometry" />
        </mxCell>
        <mxCell id="gpeM4htQoFt6hieHmYu1-2" value="" style="rounded=0;whiteSpace=wrap;html=1;" vertex="1" parent="1">
          <mxGeometry x="210" y="-150" width="370" height="270" as="geometry" />
        </mxCell>
        <mxCell id="gpeM4htQoFt6hieHmYu1-3" value="Foodcript" style="text;html=1;align=center;verticalAlign=middle;whiteSpace=wrap;rounded=0;" vertex="1" parent="1">
          <mxGeometry x="320" y="-180" width="150" height="30" as="geometry" />
        </mxCell>
        <mxCell id="gpeM4htQoFt6hieHmYu1-4" value="UC1: Upravljanje korisnicima" style="ellipse;whiteSpace=wrap;html=1;" vertex="1" parent="1">
          <mxGeometry x="312.5" y="-110" width="165" height="40" as="geometry" />
        </mxCell>
        <mxCell id="gpeM4htQoFt6hieHmYu1-5" value="UC2: Upravljanje jelovnikom" style="ellipse;whiteSpace=wrap;html=1;" vertex="1" parent="1">
          <mxGeometry x="312.5" y="-60" width="165" height="40" as="geometry" />
        </mxCell>
        <mxCell id="gpeM4htQoFt6hieHmYu1-6" value="UC3: Pregled aktivnih profila" style="ellipse;whiteSpace=wrap;html=1;" vertex="1" parent="1">
          <mxGeometry x="312.5" y="-10" width="165" height="40" as="geometry" />
        </mxCell>
        <mxCell id="gpeM4htQoFt6hieHmYu1-7" value="UC4: Generiranje izvještaja" style="ellipse;whiteSpace=wrap;html=1;" vertex="1" parent="1">
          <mxGeometry x="312.5" y="40" width="157.5" height="50" as="geometry" />
        </mxCell>
        <mxCell id="gpeM4htQoFt6hieHmYu1-14" value="" style="endArrow=none;html=1;rounded=0;exitX=1;exitY=0.3333333333333333;exitDx=0;exitDy=0;exitPerimeter=0;entryX=0;entryY=0.5;entryDx=0;entryDy=0;" edge="1" parent="1" source="gpeM4htQoFt6hieHmYu1-1" target="gpeM4htQoFt6hieHmYu1-4">
          <mxGeometry width="50" height="50" relative="1" as="geometry">
            <mxPoint x="380" y="70" as="sourcePoint" />
            <mxPoint x="430" y="20" as="targetPoint" />
          </mxGeometry>
        </mxCell>
        <mxCell id="gpeM4htQoFt6hieHmYu1-15" value="" style="endArrow=none;html=1;rounded=0;exitX=1;exitY=0.3333333333333333;exitDx=0;exitDy=0;exitPerimeter=0;entryX=0;entryY=0.5;entryDx=0;entryDy=0;" edge="1" parent="1" source="gpeM4htQoFt6hieHmYu1-1" target="gpeM4htQoFt6hieHmYu1-5">
          <mxGeometry width="50" height="50" relative="1" as="geometry">
            <mxPoint x="90" y="160" as="sourcePoint" />
            <mxPoint x="323" y="-80" as="targetPoint" />
          </mxGeometry>
        </mxCell>
        <mxCell id="gpeM4htQoFt6hieHmYu1-16" value="" style="endArrow=none;html=1;rounded=0;exitX=1;exitY=0.3333333333333333;exitDx=0;exitDy=0;exitPerimeter=0;entryX=0;entryY=0.5;entryDx=0;entryDy=0;" edge="1" parent="1" source="gpeM4htQoFt6hieHmYu1-1" target="gpeM4htQoFt6hieHmYu1-6">
          <mxGeometry width="50" height="50" relative="1" as="geometry">
            <mxPoint x="100" y="170" as="sourcePoint" />
            <mxPoint x="333" y="-70" as="targetPoint" />
          </mxGeometry>
        </mxCell>
        <mxCell id="gpeM4htQoFt6hieHmYu1-17" value="" style="endArrow=none;html=1;rounded=0;exitX=1;exitY=0.3333333333333333;exitDx=0;exitDy=0;exitPerimeter=0;entryX=0;entryY=0.5;entryDx=0;entryDy=0;" edge="1" parent="1" source="gpeM4htQoFt6hieHmYu1-1" target="gpeM4htQoFt6hieHmYu1-7">
          <mxGeometry width="50" height="50" relative="1" as="geometry">
            <mxPoint x="110" y="180" as="sourcePoint" />
            <mxPoint x="343" y="-60" as="targetPoint" />
          </mxGeometry>
        </mxCell>
      </root>
    </mxGraphModel>
  </diagram>
  <diagram name="Page-4" id="Ota6G8IXRcosFyuVu_uG">
    <mxGraphModel dx="2537" dy="1985" grid="1" gridSize="10" guides="1" tooltips="1" connect="1" arrows="1" fold="1" page="1" pageScale="1" pageWidth="850" pageHeight="1100" math="0" shadow="0">
      <root>
        <mxCell id="0" />
        <mxCell id="1" parent="0" />
        <mxCell id="HojAopcOf3ztfX1uLT6R-5" style="edgeStyle=orthogonalEdgeStyle;rounded=0;orthogonalLoop=1;jettySize=auto;html=1;exitX=0.5;exitY=0;exitDx=0;exitDy=0;endArrow=ERoneToMany;endFill=0;startArrow=ERmandOne;startFill=0;endSize=16;startSize=16;" edge="1" parent="1" source="vGn_dfaVKxfR-WKLLRgp-1" target="HojAopcOf3ztfX1uLT6R-2">
          <mxGeometry relative="1" as="geometry" />
        </mxCell>
        <mxCell id="vGn_dfaVKxfR-WKLLRgp-1" value="Korisnik" style="swimlane;fontStyle=1;align=center;verticalAlign=top;childLayout=stackLayout;horizontal=1;startSize=30;horizontalStack=0;resizeParent=1;resizeParentMax=0;resizeLast=0;collapsible=1;marginBottom=0;whiteSpace=wrap;html=1;" parent="1" vertex="1">
          <mxGeometry x="-130" y="60" width="230" height="254" as="geometry">
            <mxRectangle x="320" y="220" width="80" height="30" as="alternateBounds" />
          </mxGeometry>
        </mxCell>
        <mxCell id="vGn_dfaVKxfR-WKLLRgp-2" value="-idKorisnika : int&lt;div&gt;-imeKorisnika: string&amp;nbsp;&lt;br&gt;-prezimeKorisnika: string&lt;/div&gt;&lt;div&gt;-emailKorisnika: string&lt;/div&gt;&lt;div&gt;-lozinkaKorisnika: string&lt;/div&gt;&lt;div&gt;-role: string //user, admin&lt;/div&gt;" style="text;strokeColor=none;fillColor=none;align=left;verticalAlign=top;spacingLeft=4;spacingRight=4;overflow=hidden;rotatable=0;points=[[0,0.5],[1,0.5]];portConstraint=eastwest;whiteSpace=wrap;html=1;" parent="vGn_dfaVKxfR-WKLLRgp-1" vertex="1">
          <mxGeometry y="30" width="230" height="110" as="geometry" />
        </mxCell>
        <mxCell id="vGn_dfaVKxfR-WKLLRgp-3" value="" style="line;strokeWidth=1;fillColor=none;align=left;verticalAlign=middle;spacingTop=-1;spacingLeft=3;spacingRight=3;rotatable=0;labelPosition=right;points=[];portConstraint=eastwest;strokeColor=inherit;" parent="vGn_dfaVKxfR-WKLLRgp-1" vertex="1">
          <mxGeometry y="140" width="230" height="8" as="geometry" />
        </mxCell>
        <mxCell id="vGn_dfaVKxfR-WKLLRgp-4" value="+ registracijaKorisnika()&lt;br&gt;+prijavaKorisnika()&lt;div&gt;+urediProfilKorisnika()&lt;/div&gt;" style="text;strokeColor=none;fillColor=none;align=left;verticalAlign=top;spacingLeft=4;spacingRight=4;overflow=hidden;rotatable=0;points=[[0,0.5],[1,0.5]];portConstraint=eastwest;whiteSpace=wrap;html=1;" parent="vGn_dfaVKxfR-WKLLRgp-1" vertex="1">
          <mxGeometry y="148" width="230" height="106" as="geometry" />
        </mxCell>
        <mxCell id="HojAopcOf3ztfX1uLT6R-6" style="edgeStyle=orthogonalEdgeStyle;rounded=0;orthogonalLoop=1;jettySize=auto;html=1;exitX=0.5;exitY=0;exitDx=0;exitDy=0;entryX=1;entryY=0.5;entryDx=0;entryDy=0;endArrow=ERoneToMany;endFill=0;startArrow=ERmandOne;startFill=0;endSize=16;startSize=16;" edge="1" parent="1" source="bfRrpdut9fzB5XC2gZ9B-1" target="HojAopcOf3ztfX1uLT6R-2">
          <mxGeometry relative="1" as="geometry" />
        </mxCell>
        <mxCell id="bfRrpdut9fzB5XC2gZ9B-1" value="Pretplata" style="swimlane;fontStyle=1;align=center;verticalAlign=top;childLayout=stackLayout;horizontal=1;startSize=30;horizontalStack=0;resizeParent=1;resizeParentMax=0;resizeLast=0;collapsible=1;marginBottom=0;whiteSpace=wrap;html=1;" parent="1" vertex="1">
          <mxGeometry x="420" y="60" width="230" height="254" as="geometry">
            <mxRectangle x="320" y="220" width="80" height="30" as="alternateBounds" />
          </mxGeometry>
        </mxCell>
        <mxCell id="bfRrpdut9fzB5XC2gZ9B-2" value="-idPretplate : int&lt;div&gt;-tipPretplate: string&amp;nbsp;&lt;br&gt;-datumPocetka: date&lt;/div&gt;&lt;div&gt;-datumZavrsetka: date&lt;/div&gt;&lt;div&gt;-status: string&lt;/div&gt;" style="text;strokeColor=none;fillColor=none;align=left;verticalAlign=top;spacingLeft=4;spacingRight=4;overflow=hidden;rotatable=0;points=[[0,0.5],[1,0.5]];portConstraint=eastwest;whiteSpace=wrap;html=1;" parent="bfRrpdut9fzB5XC2gZ9B-1" vertex="1">
          <mxGeometry y="30" width="230" height="110" as="geometry" />
        </mxCell>
        <mxCell id="bfRrpdut9fzB5XC2gZ9B-3" value="" style="line;strokeWidth=1;fillColor=none;align=left;verticalAlign=middle;spacingTop=-1;spacingLeft=3;spacingRight=3;rotatable=0;labelPosition=right;points=[];portConstraint=eastwest;strokeColor=inherit;" parent="bfRrpdut9fzB5XC2gZ9B-1" vertex="1">
          <mxGeometry y="140" width="230" height="8" as="geometry" />
        </mxCell>
        <mxCell id="bfRrpdut9fzB5XC2gZ9B-4" value="+kreirajPretplatu()&lt;br&gt;+otkaziPretplatu()&lt;div&gt;&lt;br&gt;&lt;/div&gt;" style="text;strokeColor=none;fillColor=none;align=left;verticalAlign=top;spacingLeft=4;spacingRight=4;overflow=hidden;rotatable=0;points=[[0,0.5],[1,0.5]];portConstraint=eastwest;whiteSpace=wrap;html=1;" parent="bfRrpdut9fzB5XC2gZ9B-1" vertex="1">
          <mxGeometry y="148" width="230" height="106" as="geometry" />
        </mxCell>
        <mxCell id="QGLDKLG_JBbjeX7gJJjk-1" value="Narudžba" style="swimlane;fontStyle=1;align=center;verticalAlign=top;childLayout=stackLayout;horizontal=1;startSize=30;horizontalStack=0;resizeParent=1;resizeParentMax=0;resizeLast=0;collapsible=1;marginBottom=0;whiteSpace=wrap;html=1;" parent="1" vertex="1">
          <mxGeometry x="420" y="380" width="230" height="254" as="geometry">
            <mxRectangle x="320" y="220" width="80" height="30" as="alternateBounds" />
          </mxGeometry>
        </mxCell>
        <mxCell id="QGLDKLG_JBbjeX7gJJjk-2" value="-idNarudzbe : int&lt;div&gt;-datumNarudzbe: date&lt;/div&gt;&lt;div&gt;-ukupnaCijena: double&lt;/div&gt;&lt;div&gt;-status: string&lt;/div&gt;" style="text;strokeColor=none;fillColor=none;align=left;verticalAlign=top;spacingLeft=4;spacingRight=4;overflow=hidden;rotatable=0;points=[[0,0.5],[1,0.5]];portConstraint=eastwest;whiteSpace=wrap;html=1;" parent="QGLDKLG_JBbjeX7gJJjk-1" vertex="1">
          <mxGeometry y="30" width="230" height="110" as="geometry" />
        </mxCell>
        <mxCell id="QGLDKLG_JBbjeX7gJJjk-3" value="" style="line;strokeWidth=1;fillColor=none;align=left;verticalAlign=middle;spacingTop=-1;spacingLeft=3;spacingRight=3;rotatable=0;labelPosition=right;points=[];portConstraint=eastwest;strokeColor=inherit;" parent="QGLDKLG_JBbjeX7gJJjk-1" vertex="1">
          <mxGeometry y="140" width="230" height="8" as="geometry" />
        </mxCell>
        <mxCell id="QGLDKLG_JBbjeX7gJJjk-4" value="+kreirajNarudzbu()&lt;br&gt;+otkaziNarudzbu()&lt;div&gt;&lt;br&gt;&lt;/div&gt;" style="text;strokeColor=none;fillColor=none;align=left;verticalAlign=top;spacingLeft=4;spacingRight=4;overflow=hidden;rotatable=0;points=[[0,0.5],[1,0.5]];portConstraint=eastwest;whiteSpace=wrap;html=1;" parent="QGLDKLG_JBbjeX7gJJjk-1" vertex="1">
          <mxGeometry y="148" width="230" height="106" as="geometry" />
        </mxCell>
        <mxCell id="QGLDKLG_JBbjeX7gJJjk-5" value="Jelo" style="swimlane;fontStyle=1;align=center;verticalAlign=top;childLayout=stackLayout;horizontal=1;startSize=30;horizontalStack=0;resizeParent=1;resizeParentMax=0;resizeLast=0;collapsible=1;marginBottom=0;whiteSpace=wrap;html=1;" parent="1" vertex="1">
          <mxGeometry x="1190" y="380" width="230" height="254" as="geometry">
            <mxRectangle x="320" y="220" width="80" height="30" as="alternateBounds" />
          </mxGeometry>
        </mxCell>
        <mxCell id="QGLDKLG_JBbjeX7gJJjk-6" value="-idJela : int&lt;div&gt;-nazivJela: date&lt;/div&gt;&lt;div&gt;-opisJela: double&lt;/div&gt;&lt;div&gt;-nutritivneVrijednosti: string&lt;br&gt;-cijenaJela: double&lt;/div&gt;&lt;div&gt;-sastojci: string&lt;/div&gt;" style="text;strokeColor=none;fillColor=none;align=left;verticalAlign=top;spacingLeft=4;spacingRight=4;overflow=hidden;rotatable=0;points=[[0,0.5],[1,0.5]];portConstraint=eastwest;whiteSpace=wrap;html=1;" parent="QGLDKLG_JBbjeX7gJJjk-5" vertex="1">
          <mxGeometry y="30" width="230" height="110" as="geometry" />
        </mxCell>
        <mxCell id="QGLDKLG_JBbjeX7gJJjk-7" value="" style="line;strokeWidth=1;fillColor=none;align=left;verticalAlign=middle;spacingTop=-1;spacingLeft=3;spacingRight=3;rotatable=0;labelPosition=right;points=[];portConstraint=eastwest;strokeColor=inherit;" parent="QGLDKLG_JBbjeX7gJJjk-5" vertex="1">
          <mxGeometry y="140" width="230" height="8" as="geometry" />
        </mxCell>
        <mxCell id="QGLDKLG_JBbjeX7gJJjk-8" value="&lt;div&gt;+dodajJelo()&lt;br&gt;+urediJelo()&lt;br&gt;+izbrišiJelo()&lt;/div&gt;&lt;div&gt;+pregledajJelo()&lt;/div&gt;" style="text;strokeColor=none;fillColor=none;align=left;verticalAlign=top;spacingLeft=4;spacingRight=4;overflow=hidden;rotatable=0;points=[[0,0.5],[1,0.5]];portConstraint=eastwest;whiteSpace=wrap;html=1;" parent="QGLDKLG_JBbjeX7gJJjk-5" vertex="1">
          <mxGeometry y="148" width="230" height="106" as="geometry" />
        </mxCell>
        <mxCell id="QGLDKLG_JBbjeX7gJJjk-9" style="edgeStyle=orthogonalEdgeStyle;rounded=0;orthogonalLoop=1;jettySize=auto;html=1;entryX=0;entryY=0.5;entryDx=0;entryDy=0;endArrow=ERmany;endFill=0;startArrow=ERmandOne;startFill=0;endSize=16;startSize=16;" parent="1" source="vGn_dfaVKxfR-WKLLRgp-2" target="bfRrpdut9fzB5XC2gZ9B-2" edge="1">
          <mxGeometry relative="1" as="geometry" />
        </mxCell>
        <mxCell id="QGLDKLG_JBbjeX7gJJjk-11" style="edgeStyle=orthogonalEdgeStyle;rounded=0;orthogonalLoop=1;jettySize=auto;html=1;entryX=-0.019;entryY=0.989;entryDx=0;entryDy=0;entryPerimeter=0;endArrow=ERmany;endFill=0;startArrow=ERmandOne;startFill=0;endSize=16;startSize=16;" parent="1" source="vGn_dfaVKxfR-WKLLRgp-4" target="QGLDKLG_JBbjeX7gJJjk-2" edge="1">
          <mxGeometry relative="1" as="geometry" />
        </mxCell>
        <mxCell id="QGLDKLG_JBbjeX7gJJjk-12" value="StavkaNarudzbe" style="swimlane;fontStyle=1;align=center;verticalAlign=top;childLayout=stackLayout;horizontal=1;startSize=30;horizontalStack=0;resizeParent=1;resizeParentMax=0;resizeLast=0;collapsible=1;marginBottom=0;whiteSpace=wrap;html=1;" parent="1" vertex="1">
          <mxGeometry x="820" y="380" width="230" height="254" as="geometry">
            <mxRectangle x="320" y="220" width="80" height="30" as="alternateBounds" />
          </mxGeometry>
        </mxCell>
        <mxCell id="QGLDKLG_JBbjeX7gJJjk-13" value="-idStavke: int&lt;br&gt;-kolicina: int&lt;div&gt;-napomena: string&lt;/div&gt;&lt;div&gt;-cijenaPoKomadu: double&lt;/div&gt;" style="text;strokeColor=none;fillColor=none;align=left;verticalAlign=top;spacingLeft=4;spacingRight=4;overflow=hidden;rotatable=0;points=[[0,0.5],[1,0.5]];portConstraint=eastwest;whiteSpace=wrap;html=1;" parent="QGLDKLG_JBbjeX7gJJjk-12" vertex="1">
          <mxGeometry y="30" width="230" height="110" as="geometry" />
        </mxCell>
        <mxCell id="QGLDKLG_JBbjeX7gJJjk-14" value="" style="line;strokeWidth=1;fillColor=none;align=left;verticalAlign=middle;spacingTop=-1;spacingLeft=3;spacingRight=3;rotatable=0;labelPosition=right;points=[];portConstraint=eastwest;strokeColor=inherit;" parent="QGLDKLG_JBbjeX7gJJjk-12" vertex="1">
          <mxGeometry y="140" width="230" height="8" as="geometry" />
        </mxCell>
        <mxCell id="QGLDKLG_JBbjeX7gJJjk-15" value="+izracunajCijenuStavke()" style="text;strokeColor=none;fillColor=none;align=left;verticalAlign=top;spacingLeft=4;spacingRight=4;overflow=hidden;rotatable=0;points=[[0,0.5],[1,0.5]];portConstraint=eastwest;whiteSpace=wrap;html=1;" parent="QGLDKLG_JBbjeX7gJJjk-12" vertex="1">
          <mxGeometry y="148" width="230" height="106" as="geometry" />
        </mxCell>
        <mxCell id="QGLDKLG_JBbjeX7gJJjk-16" style="edgeStyle=orthogonalEdgeStyle;rounded=0;orthogonalLoop=1;jettySize=auto;html=1;entryX=0;entryY=0.5;entryDx=0;entryDy=0;endArrow=ERoneToMany;endFill=0;startArrow=ERmandOne;startFill=0;endSize=16;startSize=16;" parent="1" source="QGLDKLG_JBbjeX7gJJjk-2" target="QGLDKLG_JBbjeX7gJJjk-13" edge="1">
          <mxGeometry relative="1" as="geometry" />
        </mxCell>
        <mxCell id="QGLDKLG_JBbjeX7gJJjk-17" style="edgeStyle=orthogonalEdgeStyle;rounded=0;orthogonalLoop=1;jettySize=auto;html=1;entryX=1;entryY=0.5;entryDx=0;entryDy=0;endArrow=ERoneToMany;endFill=0;startArrow=ERmandOne;startFill=0;endSize=16;startSize=16;" parent="1" source="QGLDKLG_JBbjeX7gJJjk-6" target="QGLDKLG_JBbjeX7gJJjk-13" edge="1">
          <mxGeometry relative="1" as="geometry" />
        </mxCell>
        <mxCell id="QGLDKLG_JBbjeX7gJJjk-18" style="edgeStyle=orthogonalEdgeStyle;rounded=0;orthogonalLoop=1;jettySize=auto;html=1;entryX=0.5;entryY=0;entryDx=0;entryDy=0;endArrow=ERoneToMany;endFill=0;startArrow=ERmandOne;startFill=0;endSize=16;startSize=16;" parent="1" source="bfRrpdut9fzB5XC2gZ9B-2" target="QGLDKLG_JBbjeX7gJJjk-5" edge="1">
          <mxGeometry relative="1" as="geometry" />
        </mxCell>
        <mxCell id="HojAopcOf3ztfX1uLT6R-1" value="Dostava" style="swimlane;fontStyle=1;align=center;verticalAlign=top;childLayout=stackLayout;horizontal=1;startSize=30;horizontalStack=0;resizeParent=1;resizeParentMax=0;resizeLast=0;collapsible=1;marginBottom=0;whiteSpace=wrap;html=1;" vertex="1" parent="1">
          <mxGeometry x="150" y="-254" width="230" height="254" as="geometry">
            <mxRectangle x="320" y="220" width="80" height="30" as="alternateBounds" />
          </mxGeometry>
        </mxCell>
        <mxCell id="HojAopcOf3ztfX1uLT6R-2" value="-idDostave; int&lt;br&gt;-datumIsporuke: date&lt;div&gt;-statusIsporuke: string&lt;br&gt;&lt;br&gt;&lt;/div&gt;&lt;div&gt;&lt;br&gt;&lt;/div&gt;" style="text;strokeColor=none;fillColor=none;align=left;verticalAlign=top;spacingLeft=4;spacingRight=4;overflow=hidden;rotatable=0;points=[[0,0.5],[1,0.5]];portConstraint=eastwest;whiteSpace=wrap;html=1;" vertex="1" parent="HojAopcOf3ztfX1uLT6R-1">
          <mxGeometry y="30" width="230" height="110" as="geometry" />
        </mxCell>
        <mxCell id="HojAopcOf3ztfX1uLT6R-3" value="" style="line;strokeWidth=1;fillColor=none;align=left;verticalAlign=middle;spacingTop=-1;spacingLeft=3;spacingRight=3;rotatable=0;labelPosition=right;points=[];portConstraint=eastwest;strokeColor=inherit;" vertex="1" parent="HojAopcOf3ztfX1uLT6R-1">
          <mxGeometry y="140" width="230" height="8" as="geometry" />
        </mxCell>
        <mxCell id="HojAopcOf3ztfX1uLT6R-4" value="+obaviDostavu()&lt;br&gt;+promjeniStatus(novi status)" style="text;strokeColor=none;fillColor=none;align=left;verticalAlign=top;spacingLeft=4;spacingRight=4;overflow=hidden;rotatable=0;points=[[0,0.5],[1,0.5]];portConstraint=eastwest;whiteSpace=wrap;html=1;" vertex="1" parent="HojAopcOf3ztfX1uLT6R-1">
          <mxGeometry y="148" width="230" height="106" as="geometry" />
        </mxCell>
      </root>
    </mxGraphModel>
  </diagram>
</mxfile>
